<mxfile host="app.diagrams.net" modified="2024-06-24T01:28:44.396Z" agent="Mozilla/5.0 (Windows NT 10.0; Win64; x64; rv:127.0) Gecko/20100101 Firefox/127.0" version="24.5.4" etag="oeoJKzAKRHlhBR50WM_x" type="github">
  <diagram name="第 1 页" id="gW9XJvixmD-DZXl45IsB">
    <mxGraphModel>
      <root>
        <mxCell id="0" />
        <mxCell id="1" parent="0" />
      </root>
    </mxGraphModel>
  </diagram>
</mxfile>
